<svg width="17" height="13" viewBox="0 0 17 13" fill="none" xmlns="http://www.w3.org/2000/svg">
<path d="M8.01758 12.3271C7.67726 12.3254 7.34158 12.2487 7.03492 12.1027C6.72825 11.9566 6.45828 11.7448 6.24459 11.4827L0.632349 4.75413C0.304405 4.34905 0.0980342 3.86095 0.0367543 3.34544C-0.0245256 2.82993 0.0617498 2.30776 0.28575 1.83842C0.46742 1.43052 0.763887 1.08299 1.13974 0.837342C1.5156 0.591696 1.95495 0.458314 2.40534 0.453125H13.6298C14.0802 0.458314 14.5196 0.591696 14.8954 0.837342C15.2713 1.08299 15.5677 1.43052 15.7494 1.83842C15.9734 2.30776 16.0597 2.82993 15.9984 3.34544C15.9371 3.86095 15.7308 4.34905 15.4028 4.75413L9.79057 11.4827C9.57688 11.7448 9.3069 11.9566 9.00024 12.1027C8.69357 12.2487 8.3579 12.3254 8.01758 12.3271Z" fill="white"/>
</svg>
