<svg width="7" height="12" viewBox="0 0 7 12" fill="none" xmlns="http://www.w3.org/2000/svg">
<path d="M6.70773 6.7179C6.84843 6.57738 6.92756 6.38674 6.92773 6.1879V5.8079C6.92543 5.60948 6.84662 5.41962 6.70773 5.2779L1.56773 0.147899C1.47385 0.0532428 1.34605 0 1.21273 0C1.07942 0 0.951618 0.0532428 0.857734 0.147899L0.147734 0.857899C0.0536699 0.950063 0.000662804 1.07621 0.000662804 1.2079C0.000662804 1.33959 0.0536699 1.46574 0.147734 1.5579L4.59773 5.9979L0.147734 10.4379C0.0530777 10.5318 -0.000164986 10.6596 -0.000164986 10.7929C-0.000164986 10.9262 0.0530777 11.054 0.147734 11.1479L0.857734 11.8479C0.951618 11.9426 1.07942 11.9958 1.21273 11.9958C1.34605 11.9958 1.47385 11.9426 1.56773 11.8479L6.70773 6.7179Z" fill="white"/>
</svg>
