<svg width="17" height="13" viewBox="0 0 17 13" fill="none" xmlns="http://www.w3.org/2000/svg">
<path d="M9.05819 0.617177C9.39848 0.622115 9.73339 0.701959 10.0386 0.850916C10.3439 0.999871 10.6118 1.2142 10.8229 1.47836L16.3694 8.25987C16.6934 8.66803 16.8951 9.15807 16.9513 9.67412C17.0076 10.1902 16.9162 10.7115 16.6877 11.1787C16.5021 11.5848 16.2022 11.9295 15.824 12.1715C15.4458 12.4136 15.0052 12.5428 14.5547 12.5437L3.33082 12.4368C2.88051 12.4273 2.44246 12.2898 2.06902 12.0406C1.69557 11.7914 1.4025 11.441 1.2248 11.0314C1.00537 10.56 0.924174 10.037 0.990461 9.52215C1.05675 9.00727 1.26785 8.52116 1.59972 8.11924L7.27708 1.4446C7.49331 1.18451 7.76533 0.975321 8.0734 0.832204C8.38147 0.689087 8.71787 0.615635 9.05819 0.617177Z" fill="white"/>
</svg>
