<svg width="33" height="26" viewBox="0 0 33 26" fill="none" xmlns="http://www.w3.org/2000/svg">
<path d="M10.4812 0C16.2711 0 20.9625 3.97078 20.9625 8.86875C20.9625 13.7667 16.2711 17.7375 10.4812 17.7375C9.53895 17.7375 8.62687 17.6216 7.75512 17.4251C6.21316 18.3825 3.98741 19.35 1.25725 19.35C0.754348 19.35 0.298816 19.0527 0.101688 18.5891C-0.0955406 18.1255 -0.000352733 17.5914 0.339582 17.2286C0.365836 17.2084 1.48048 15.994 2.30436 14.4067C0.865711 12.8899 0 10.965 0 8.86875C0 3.97078 4.69288 0 10.4812 0ZM8.2943 15.0215C9.03 15.2331 9.7657 15.3188 10.4812 15.3188C14.9257 15.3188 18.5437 12.4263 18.5437 8.86875C18.5437 5.31117 14.9257 2.41875 10.4812 2.41875C6.0368 2.41875 2.41875 5.31117 2.41875 8.86875C2.41875 10.6425 3.31117 11.9527 4.05997 12.7438L5.24566 13.9985L4.45 15.5254C4.2701 15.8277 4.06804 16.2207 3.8574 16.5533C4.74982 16.2963 5.62863 15.8982 6.48527 15.3238L7.3268 14.8451L8.2943 15.0215ZM22.2525 6.46008C27.8156 6.67172 32.25 10.5568 32.25 15.3188C32.25 17.415 31.3833 19.3399 29.9471 20.8567C30.7685 22.444 31.8821 23.6584 31.9124 23.6786C32.25 24.0414 32.3457 24.5755 32.1039 25.0391C31.9527 25.5027 31.4941 25.8 30.9902 25.8C28.2641 25.8 26.0368 24.8325 24.4949 23.8751C23.6231 24.0716 22.7111 24.1875 21.7687 24.1875C17.6367 24.1875 14.064 22.1618 12.3558 19.224C13.2275 19.1081 14.064 18.9116 14.8602 18.6395C16.2711 20.514 18.8411 21.7688 21.7687 21.7688C22.4843 21.7688 23.22 21.6831 23.9557 21.4715L24.9232 21.2951L25.7647 21.7738C26.6214 22.3482 27.4982 22.7463 28.3951 23.0033C28.1835 22.6707 27.9819 22.2777 27.8005 21.9754L27.0043 20.4485L28.1885 19.1938C28.9393 18.4077 29.8312 17.0925 29.8312 15.3188C29.8312 11.9779 26.6415 9.22653 22.5296 8.89899L22.575 8.86875C22.575 8.03731 22.4641 7.23106 22.2525 6.46008Z" fill="white"/>
</svg>
