<svg width="36" height="36" viewBox="0 0 36 36" fill="none" xmlns="http://www.w3.org/2000/svg">
<path d="M18 36C27.9411 36 36 27.9411 36 18C36 8.05888 27.9411 0 18 0C8.05888 0 0 8.05888 0 18C0 27.9411 8.05888 36 18 36Z" fill="#5C3EA7"/>
<path d="M10.265 9L9 12.236V25.459H13.502V27L16.033 27.85L18.425 25.459H22.083L27.006 20.535V9H10.265ZM25.317 19.691L22.504 22.505H18.002L15.611 24.896V22.505H11.813V10.688H25.317V19.691ZM22.505 13.924V18.847H20.817V13.924H22.505ZM18.003 13.924V18.847H16.315V13.924H18.003Z" fill="white"/>
</svg>
