<svg width="36" height="36" viewBox="0 0 36 36" fill="none" xmlns="http://www.w3.org/2000/svg">
<path d="M18 36C27.9411 36 36 27.9411 36 18C36 8.05888 27.9411 0 18 0C8.05888 0 0 8.05888 0 18C0 27.9411 8.05888 36 18 36Z" fill="url(#paint0_linear_119_734)"/>
<path fill-rule="evenodd" clip-rule="evenodd" d="M14.1301 9.09069C15.0368 9.05617 15.3259 9.04919 17.6347 9.06753C19.9436 9.08588 20.2325 9.09822 21.1378 9.14637C22.0431 9.19452 22.6601 9.34392 23.1993 9.55762C23.764 9.77616 24.2752 10.1148 24.6967 10.5509C25.1261 10.9786 25.4558 11.4943 25.6646 12.0632C25.8704 12.6057 26.0092 13.225 26.0438 14.1294C26.0783 15.0377 26.0853 15.3267 26.0669 17.6348C26.0486 19.9436 26.0363 20.2325 25.9881 21.1386C25.94 22.0423 25.7906 22.6594 25.5761 23.1986C25.3583 23.7641 25.0199 24.2754 24.5843 24.6968C24.1559 25.1261 23.6394 25.4559 23.0713 25.6646C22.5288 25.8705 21.9095 26.0093 21.0051 26.0438C20.0976 26.0784 19.8085 26.0853 17.4997 26.067C15.1908 26.0487 14.9019 26.0363 13.9959 25.9882C13.0921 25.94 12.4751 25.7906 11.9359 25.5761C11.3704 25.3583 10.8591 25.0199 10.4377 24.5844C10.0086 24.1565 9.67809 23.6401 9.46908 23.0714C9.26398 22.5288 9.12517 21.9095 9.09063 21.0051C9.05611 20.0969 9.04914 19.8078 9.06748 17.4997C9.08582 15.1909 9.09816 14.902 9.14631 13.9967C9.19446 13.0914 9.34387 12.4744 9.55757 11.9352C9.7759 11.3698 10.1149 10.8588 10.5509 10.4377C10.9785 10.0088 11.4946 9.67825 12.0631 9.46914C12.6057 9.26404 13.225 9.12523 14.1294 9.09068L14.1301 9.09069ZM21.0568 10.6758C20.1608 10.6277 19.892 10.6171 17.6226 10.599C15.3531 10.581 15.0842 10.5874 14.1875 10.6212C13.3581 10.6525 12.9073 10.7872 12.6066 10.9015C12.2089 11.0529 11.9239 11.2338 11.624 11.5289C11.3399 11.801 11.1202 12.1333 10.9811 12.5013C10.8621 12.8002 10.7202 13.2488 10.6757 14.0776C10.6276 14.9736 10.617 15.2425 10.599 17.5119C10.5809 19.7813 10.5873 20.0503 10.6211 20.947C10.6524 21.7764 10.7872 22.2272 10.9014 22.5279C11.0345 22.8976 11.249 23.2339 11.5288 23.5104C11.8009 23.7946 12.1338 24.0144 12.5013 24.1534C12.8001 24.2724 13.2488 24.4143 14.0776 24.4588C14.9736 24.5068 15.2416 24.5175 17.5118 24.5355C19.782 24.5535 20.0502 24.5472 20.9469 24.5133C21.7763 24.4821 22.2271 24.3473 22.5279 24.233C22.9255 24.0816 23.2105 23.9008 23.5104 23.6056C23.7946 23.3336 24.0144 23.0007 24.1533 22.6332C24.2724 22.3343 24.4142 21.8857 24.4587 21.0569C24.5068 20.1609 24.5174 19.8921 24.5354 17.6226C24.5535 15.3532 24.5471 15.0842 24.5133 14.1876C24.482 13.3582 24.3473 12.9074 24.233 12.6066C24.0816 12.209 23.9007 11.924 23.6056 11.6241C23.3334 11.3399 23.0012 11.1203 22.6331 10.9812C22.3343 10.8621 21.8857 10.7202 21.0568 10.6758ZM16.4607 20.1789C17.065 20.4361 17.7399 20.4755 18.37 20.2904C19.0002 20.1053 19.5465 19.7072 19.9157 19.1641C20.285 18.6209 20.4542 17.9664 20.3944 17.3124C20.3347 16.6584 20.0498 16.0453 19.5883 15.578C19.2941 15.2793 18.9374 15.0496 18.5437 14.9053C18.1501 14.761 17.7294 14.7058 17.3118 14.7436C16.8943 14.7815 16.4903 14.9114 16.1291 15.1241C15.7678 15.3368 15.4581 15.6269 15.2224 15.9737C14.9867 16.3204 14.8309 16.715 14.766 17.1292C14.7011 17.5434 14.7289 17.9669 14.8474 18.369C14.9658 18.7712 15.1719 19.1421 15.4509 19.4551C15.7299 19.768 16.0748 20.0152 16.4607 20.1789ZM14.5025 14.4535C14.9114 14.051 15.3956 13.733 15.9274 13.5177C16.4592 13.3023 17.0282 13.1938 17.6019 13.1984C18.1756 13.2029 18.7429 13.3205 19.2712 13.5442C19.7995 13.768 20.2786 14.0936 20.681 14.5025C21.0835 14.9115 21.4015 15.3956 21.6168 15.9274C21.8322 16.4592 21.9406 17.0282 21.9361 17.602C21.9315 18.1757 21.814 18.7429 21.5902 19.2712C21.3665 19.7995 21.0408 20.2786 20.6319 20.6811C19.8061 21.4939 18.6912 21.9454 17.5325 21.9361C16.3738 21.9269 15.2662 21.4578 14.4534 20.632C13.6406 19.8062 13.1891 18.6913 13.1983 17.5326C13.2075 16.3739 13.6767 15.2663 14.5025 14.4535ZM22.9346 13.8914C23.0359 13.7974 23.1173 13.684 23.1739 13.5579C23.2306 13.4319 23.2614 13.2957 23.2645 13.1576C23.2676 13.0194 23.243 12.882 23.192 12.7535C23.1411 12.625 23.0649 12.5081 22.968 12.4096C22.871 12.3111 22.7553 12.233 22.6276 12.1801C22.5 12.1271 22.363 12.1003 22.2248 12.1012C22.0866 12.1021 21.95 12.1307 21.823 12.1854C21.6961 12.2401 21.5814 12.3196 21.4858 12.4194C21.2998 12.6135 21.1967 12.8724 21.1985 13.1412C21.2003 13.4099 21.3068 13.6674 21.4953 13.859C21.6839 14.0506 21.9397 14.1611 22.2084 14.1672C22.4771 14.1732 22.7376 14.0743 22.9346 13.8914Z" fill="white"/>
<defs>
<linearGradient id="paint0_linear_119_734" x1="0" y1="18" x2="36" y2="18" gradientUnits="userSpaceOnUse">
<stop stop-color="#FF512F"/>
<stop offset="1" stop-color="#DD2476"/>
</linearGradient>
</defs>
</svg>
