<svg width="52" height="52" viewBox="0 0 52 52" fill="none" xmlns="http://www.w3.org/2000/svg">
<path opacity="0.82" d="M26 52C40.3594 52 52 40.3594 52 26C52 11.6406 40.3594 0 26 0C11.6406 0 0 11.6406 0 26C0 40.3594 11.6406 52 26 52Z" fill="url(#paint0_linear_98_484)"/>
<path d="M17.7273 25.9488V22.1008C17.7273 17.1348 21.2373 15.1328 25.5273 17.6028L28.8553 19.5268L32.1833 21.4508C36.4733 23.9208 36.4733 27.9768 32.1833 30.4468L28.8553 32.3708L25.5273 34.2948C21.2373 36.7648 17.7273 34.7368 17.7273 29.7968V25.9488Z" fill="white"/>
<defs>
<linearGradient id="paint0_linear_98_484" x1="0" y1="26" x2="52" y2="26" gradientUnits="userSpaceOnUse">
<stop stop-color="#FC00FF"/>
<stop offset="1" stop-color="#00DBDE"/>
</linearGradient>
</defs>
</svg>
