<svg width="56" height="56" viewBox="0 0 56 56" fill="#d306e6" xmlns="http://www.w3.org/2000/svg">
<path d="M27.9994 51.3337C15.1124 51.3337 4.66602 40.8873 4.66602 28.0003C4.66602 15.1133 15.1124 4.66699 27.9994 4.66699C40.8864 4.66699 51.3327 15.1133 51.3327 28.0003C51.3327 40.8873 40.8864 51.3337 27.9994 51.3337ZM27.9994 46.667C32.9501 46.667 37.698 44.7003 41.1987 41.1997C44.6994 37.699 46.666 32.951 46.666 28.0003C46.666 23.0496 44.6994 18.3017 41.1987 14.801C37.698 11.3003 32.9501 9.33366 27.9994 9.33366C23.0486 9.33366 18.3007 11.3003 14.8 14.801C11.2993 18.3017 9.33268 23.0496 9.33268 28.0003C9.33268 32.951 11.2993 37.699 14.8 41.1997C18.3007 44.7003 23.0486 46.667 27.9994 46.667ZM24.784 19.6353L36.1684 27.2233C36.2964 27.3085 36.4014 27.424 36.474 27.5596C36.5466 27.6951 36.5846 27.8465 36.5846 28.0003C36.5846 28.1541 36.5466 28.3055 36.474 28.4411C36.4014 28.5766 36.2964 28.6921 36.1684 28.7773L24.7817 36.3653C24.6413 36.4584 24.4783 36.5117 24.3101 36.5197C24.1418 36.5276 23.9745 36.4899 23.826 36.4105C23.6774 36.3311 23.5531 36.2129 23.4663 36.0686C23.3794 35.9243 23.3333 35.7591 23.3327 35.5907V20.41C23.333 20.2412 23.3791 20.0756 23.4661 19.9309C23.553 19.7862 23.6776 19.6678 23.8265 19.5883C23.9755 19.5088 24.1432 19.4712 24.3118 19.4795C24.4804 19.4878 24.6436 19.5416 24.784 19.6353Z" fill="white"/>
</svg>
