<svg width="54" height="40" viewBox="0 0 54 40" fill="none" xmlns="http://www.w3.org/2000/svg">
<path d="M14.432 39.36C20.664 39.36 25.174 36.326 27.224 31.324C29.438 36.326 34.276 39.36 40.016 39.36C48.38 39.36 53.792 33.62 53.792 25.748C53.792 18.696 48.79 12.956 41.656 12.956C38.13 12.956 34.686 14.104 33.784 15.252C33.784 13.694 34.85 11.726 36.9 9.348C40.918 4.674 49.446 2.296 53.628 2.296L51.988 0C39.36 0 28.536 7.462 26.076 18.368C23.78 14.76 20.418 12.956 16.072 12.956C12.546 12.956 9.102 14.104 8.2 15.252C8.2 13.694 9.266 11.726 11.316 9.348C15.334 4.674 23.862 2.296 28.044 2.296L26.404 0C21.812 0 17.302 1.066 13.12 3.116C4.674 7.298 0 14.514 0 22.96C0 33.538 6.232 39.36 14.432 39.36Z" fill="white"/>
</svg>
