<svg width="36" height="36" viewBox="0 0 36 36" fill="none" xmlns="http://www.w3.org/2000/svg">
<path d="M18 36C27.9411 36 36 27.9411 36 18C36 8.05888 27.9411 0 18 0C8.05888 0 0 8.05888 0 18C0 27.9411 8.05888 36 18 36Z" fill="#FF0000"/>
<path d="M29.7381 11.6621C29.5989 11.1476 29.3273 10.6785 28.9504 10.3015C28.5734 9.92461 28.1044 9.653 27.5898 9.51374C25.7061 9 18.1248 9 18.1248 9C18.1248 9 10.5431 9.01555 8.65937 9.52929C8.14482 9.66856 7.67574 9.94019 7.29882 10.3171C6.92191 10.6941 6.65032 11.1632 6.5111 11.6777C5.94132 15.0247 5.7203 20.1248 6.52675 23.3379C6.66598 23.8524 6.93758 24.3215 7.31449 24.6985C7.6914 25.0754 8.16048 25.347 8.67502 25.4863C10.5587 26 18.1402 26 18.1402 26C18.1402 26 25.7217 26 27.6053 25.4863C28.1198 25.347 28.5889 25.0754 28.9659 24.6985C29.3428 24.3215 29.6144 23.8525 29.7537 23.3379C30.3546 19.9862 30.5398 14.8893 29.7381 11.6622V11.6621Z" fill="#FF0000"/>
<path d="M15.7117 21.1426L22.001 17.4998L15.7117 13.8569V21.1426Z" fill="white"/>
</svg>
